<svg width="41" height="40" viewBox="0 0 41 40" fill="none" xmlns="http://www.w3.org/2000/svg">
<path d="M13.8055 16.3894L16.9999 17.3116L20.511 14.7616L15.4721 14.906C15.4228 14.9087 15.375 14.924 15.3332 14.9505L13.7388 15.8672C13.6892 15.8946 13.649 15.9364 13.6234 15.9869C13.5977 16.0375 13.5879 16.0946 13.5951 16.1509C13.6022 16.2071 13.6261 16.2599 13.6636 16.3024C13.7011 16.3449 13.7506 16.3752 13.8055 16.3894Z" fill="#E0B100"/>
<path d="M29.511 13.5337L26.011 12.7782C25.7167 12.7142 25.412 12.7144 25.1177 12.7786C24.8235 12.8429 24.5464 12.9696 24.3055 13.1504L13.7332 20.8337L11.1944 20.7226C11.0489 20.7176 10.9056 20.7585 10.7847 20.8394C10.6637 20.9203 10.5713 21.0371 10.5203 21.1734C10.4693 21.3097 10.4625 21.4586 10.5007 21.599C10.5389 21.7394 10.6202 21.8643 10.7332 21.9559L13.2055 23.917C13.2462 23.9499 13.2946 23.9717 13.3462 23.9805C13.3977 23.9892 13.4507 23.9846 13.4999 23.967C14.2055 23.6948 16.8332 22.3004 19.9388 20.5948L20.561 26.9893C20.5663 27.0446 20.5866 27.0975 20.6197 27.1422C20.6529 27.1869 20.6976 27.2217 20.749 27.2429C20.8005 27.264 20.8567 27.2707 20.9117 27.2623C20.9667 27.2538 21.0183 27.2305 21.061 27.1948L22.4499 26.0393C22.5259 25.9755 22.5771 25.887 22.5944 25.7893L23.911 18.4059C26.1332 17.1726 28.2555 15.9781 29.7499 15.1337C29.905 15.0493 30.0304 14.9193 30.1091 14.7613C30.1878 14.6032 30.2161 14.4248 30.19 14.2502C30.1639 14.0755 30.0848 13.9131 29.9634 13.785C29.8419 13.6568 29.684 13.5691 29.511 13.5337Z" fill="#E0B100"/>
<rect x="0.833252" y="0.5" width="39" height="39" rx="19.5" stroke="#E0B100"/>
</svg>
